# xmcd
#
# Track frame offsets: 
#        150
#        10725
#        24450
#        40648
#        64048
#        75447
#        93297
#        120672
#        137322
#        155996
#        175721
#        191170
#
# Disc length: 2792 seconds
#
# Revision: 0
# Processed by: cddbd v1.5.2PL0 Copyright (c) Steve Scherf et al.
# Submitted via: ExactAudioCopy v1.0b4
#
DISCID=8a0ae60c
DTITLE=Hank Shreve Band -  I've Had It
DYEAR=2013
DGENRE=Blues
TTITLE0=Boogie Boss
TTITLE1=I've Had It
TTITLE2=Lovely One
TTITLE3=Street Light
TTITLE4=Lollipop Mama
TTITLE5=I'm Good
TTITLE6=Lover's Holiday
TTITLE7=Help Me Out
TTITLE8=Real Kinda Thing
TTITLE9=Tell Me Why
TTITLE10=Mercury Blues
TTITLE11=Sugar Bee Boogie
EXTD=
EXTT0=
EXTT1=
EXTT2=
EXTT3=
EXTT4=
EXTT5=
EXTT6=
EXTT7=
EXTT8=
EXTT9=
EXTT10=
EXTT11=
PLAYORDER=
